<svg width="74" height="23" viewBox="0 0 74 23" fill="none" xmlns="http://www.w3.org/2000/svg">
<g clip-path="url(#clip0_946_2450)">
<g clip-path="url(#clip1_946_2450)">
<path fill-rule="evenodd" clip-rule="evenodd" d="M8.32104 0H16.8097C23.0875 0 28.1773 4.94402 28.1773 11.37C28.1773 17.796 22.9684 23.0024 16.5449 23.0024H8.32104V18.3329H15.4297C19.1882 18.3329 22.2615 15.2596 22.2615 11.5012C22.2615 7.74279 19.1882 4.66948 15.4297 4.66948H8.32104V0ZM36.0221 4.27105V10.3496H45.7692V14.6207H36.0221V23H30.6991V0H48.0821V4.27105H36.0221ZM67.0734 23L61.5196 15.0143L56.0654 23H49.9528L58.4633 11.302L50.3828 0H56.4274L61.7188 7.45854L66.9107 0H72.6613L64.644 11.1052L73.2201 23H67.0759H67.0734Z" fill="white"/>
<path d="M11.6566 17.0843C14.8581 17.0843 17.4534 14.489 17.4534 11.2875C17.4534 8.08602 14.8581 5.49072 11.6566 5.49072C8.45516 5.49072 5.85986 8.08602 5.85986 11.2875C5.85986 14.489 8.45516 17.0843 11.6566 17.0843Z" fill="url(#paint0_linear_946_2450)"/>
<path d="M6.37741 17.8786C9.89956 17.8786 12.7548 15.0233 12.7548 11.5012C12.7548 7.97905 9.89956 5.12378 6.37741 5.12378C2.85527 5.12378 0 7.97905 0 11.5012C0 15.0233 2.85527 17.8786 6.37741 17.8786Z" fill="url(#paint1_linear_946_2450)"/>
</g>
</g>
<defs>
<linearGradient id="paint0_linear_946_2450" x1="16.5208" y1="8.75059" x2="6.21828" y2="14.0638" gradientUnits="userSpaceOnUse">
<stop offset="0.04" stop-color="#F5516C"/>
<stop offset="0.14" stop-color="#C74863"/>
<stop offset="0.31" stop-color="#853B57"/>
<stop offset="0.44" stop-color="#55324E"/>
<stop offset="0.55" stop-color="#382D49"/>
<stop offset="0.61" stop-color="#2D2B47"/>
</linearGradient>
<linearGradient id="paint1_linear_946_2450" x1="10.267" y1="6.86572" x2="2.0675" y2="16.6347" gradientUnits="userSpaceOnUse">
<stop offset="0.2" stop-color="#F5516C"/>
<stop offset="1" stop-color="#6B3753"/>
</linearGradient>
<clipPath id="clip0_946_2450">
<rect width="73.6" height="23" fill="white"/>
</clipPath>
<clipPath id="clip1_946_2450">
<rect width="73.2176" height="23" fill="white"/>
</clipPath>
</defs>
</svg>
